{"asset":{"version":"2.0","generator":"Blockbench 4.9.4 glTF exporter"},"scenes":[{"nodes":[1,3,5,7,9,11,13],"name":"blockbench_export"}],"scene":0,"nodes":[{"name":"leg"},{"translation":[0.3125,0,0],"name":"leg","mesh":0,"children":[0],"skin":0},{"name":"leg2"},{"translation":[0.3125,0,0],"name":"leg2","mesh":1,"children":[2],"skin":1},{"name":"leg3"},{"translation":[0.3125,0,0],"name":"leg3","mesh":2,"children":[4],"skin":2},{"name":"leg4"},{"translation":[0.625,0,0],"name":"leg4","mesh":3,"children":[6],"skin":3},{"name":"body"},{"name":"body","mesh":4,"children":[8],"skin":4},{"name":"tail"},{"name":"tail","mesh":5,"children":[10],"skin":5},{"name":"head"},{"name":"head","mesh":6,"children":[12],"skin":6}],"bufferViews":[{"buffer":0,"byteOffset":0,"byteLength":1152,"target":34962,"byteStride":12},{"buffer":0,"byteOffset":1152,"byteLength":1152,"target":34962,"byteStride":12},{"buffer":0,"byteOffset":2304,"byteLength":768,"target":34962,"byteStride":8},{"buffer":0,"byteOffset":3072,"byteLength":768,"target":34962,"byteStride":8},{"buffer":0,"byteOffset":3840,"byteLength":1536,"target":34962,"byteStride":16},{"buffer":0,"byteOffset":5376,"byteLength":288,"target":34963},{"buffer":0,"byteOffset":5664,"byteLength":1152,"target":34962,"byteStride":12},{"buffer":0,"byteOffset":6816,"byteLength":1152,"target":34962,"byteStride":12},{"buffer":0,"byteOffset":7968,"byteLength":768,"target":34962,"byteStride":8},{"buffer":0,"byteOffset":8736,"byteLength":768,"target":34962,"byteStride":8},{"buffer":0,"byteOffset":9504,"byteLength":1536,"target":34962,"byteStride":16},{"buffer":0,"byteOffset":11040,"byteLength":288,"target":34963},{"buffer":0,"byteOffset":11328,"byteLength":1152,"target":34962,"byteStride":12},{"buffer":0,"byteOffset":12480,"byteLength":1152,"target":34962,"byteStride":12},{"buffer":0,"byteOffset":13632,"byteLength":768,"target":34962,"byteStride":8},{"buffer":0,"byteOffset":14400,"byteLength":768,"target":34962,"byteStride":8},{"buffer":0,"byteOffset":15168,"byteLength":1536,"target":34962,"byteStride":16},{"buffer":0,"byteOffset":16704,"byteLength":288,"target":34963},{"buffer":0,"byteOffset":16992,"byteLength":1152,"target":34962,"byteStride":12},{"buffer":0,"byteOffset":18144,"byteLength":1152,"target":34962,"byteStride":12},{"buffer":0,"byteOffset":19296,"byteLength":768,"target":34962,"byteStride":8},{"buffer":0,"byteOffset":20064,"byteLength":768,"target":34962,"byteStride":8},{"buffer":0,"byteOffset":20832,"byteLength":1536,"target":34962,"byteStride":16},{"buffer":0,"byteOffset":22368,"byteLength":288,"target":34963},{"buffer":0,"byteOffset":22656,"byteLength":288,"target":34962,"byteStride":12},{"buffer":0,"byteOffset":22944,"byteLength":288,"target":34962,"byteStride":12},{"buffer":0,"byteOffset":23232,"byteLength":192,"target":34962,"byteStride":8},{"buffer":0,"byteOffset":23424,"byteLength":192,"target":34962,"byteStride":8},{"buffer":0,"byteOffset":23616,"byteLength":384,"target":34962,"byteStride":16},{"buffer":0,"byteOffset":24000,"byteLength":72,"target":34963},{"buffer":0,"byteOffset":24072,"byteLength":288,"target":34962,"byteStride":12},{"buffer":0,"byteOffset":24360,"byteLength":288,"target":34962,"byteStride":12},{"buffer":0,"byteOffset":24648,"byteLength":192,"target":34962,"byteStride":8},{"buffer":0,"byteOffset":24840,"byteLength":192,"target":34962,"byteStride":8},{"buffer":0,"byteOffset":25032,"byteLength":384,"target":34962,"byteStride":16},{"buffer":0,"byteOffset":25416,"byteLength":72,"target":34963},{"buffer":0,"byteOffset":25488,"byteLength":576,"target":34962,"byteStride":12},{"buffer":0,"byteOffset":26064,"byteLength":576,"target":34962,"byteStride":12},{"buffer":0,"byteOffset":26640,"byteLength":384,"target":34962,"byteStride":8},{"buffer":0,"byteOffset":27024,"byteLength":384,"target":34962,"byteStride":8},{"buffer":0,"byteOffset":27408,"byteLength":768,"target":34962,"byteStride":16},{"buffer":0,"byteOffset":28176,"byteLength":144,"target":34963},{"buffer":0,"byteOffset":28320,"byteLength":64},{"buffer":0,"byteOffset":28384,"byteLength":64},{"buffer":0,"byteOffset":28448,"byteLength":64},{"buffer":0,"byteOffset":28512,"byteLength":64},{"buffer":0,"byteOffset":28576,"byteLength":64},{"buffer":0,"byteOffset":28640,"byteLength":64},{"buffer":0,"byteOffset":28704,"byteLength":64}],"buffers":[{"byteLength":28768,"uri":"data:application/octet-stream;base64,"}],"accessors":[{"bufferView":0,"componentType":5126,"count":96,"max":[0,0.1875,0.0625],"min":[-0.25,0,-0.1875],"type":"VEC3"},{"bufferView":1,"componentType":5126,"count":96,"max":[1,1,1],"min":[-1,-1,-1],"type":"VEC3"},{"bufferView":2,"componentType":5126,"count":96,"max":[0.468505859375,0.562255859375],"min":[0.000244140625,0.297119140625],"type":"VEC2"},{"bufferView":3,"componentType":5123,"count":96,"max":[0,0,0,0],"min":[0,0,0,0],"type":"VEC4"},{"bufferView":4,"componentType":5126,"count":96,"max":[0,1,0,0],"min":[0,1,0,0],"type":"VEC4"},{"bufferView":5,"componentType":5123,"count":144,"max":[95],"min":[0],"type":"SCALAR"},{"bufferView":6,"componentType":5126,"count":96,"max":[-0.3125,0.1875,0.0625],"min":[-0.5625,0,-0.1875],"type":"VEC3"},{"bufferView":7,"componentType":5126,"count":96,"max":[1,1,1],"min":[-1,-1,-1],"type":"VEC3"},{"bufferView":8,"componentType":5126,"count":96,"max":[0.609130859375,0.562255859375],"min":[0.000244140625,0.078369140625],"type":"VEC2"},{"bufferView":9,"componentType":5123,"count":96,"max":[0,0,0,0],"min":[0,0,0,0],"type":"VEC4"},{"bufferView":10,"componentType":5126,"count":96,"max":[0,1,0,0],"min":[0,1,0,0],"type":"VEC4"},{"bufferView":11,"componentType":5123,"count":144,"max":[95],"min":[0],"type":"SCALAR"},{"bufferView":12,"componentType":5126,"count":96,"max":[-0.3125,0.1875,-0.3125],"min":[-0.5625,0,-0.5625],"type":"VEC3"},{"bufferView":13,"componentType":5126,"count":96,"max":[1,1,1],"min":[-1,-1,-1],"type":"VEC3"},{"bufferView":14,"componentType":5126,"count":96,"max":[0.562255859375,0.515380859375],"min":[0.000244140625,0.109619140625],"type":"VEC2"},{"bufferView":15,"componentType":5123,"count":96,"max":[0,0,0,0],"min":[0,0,0,0],"type":"VEC4"},{"bufferView":16,"componentType":5126,"count":96,"max":[0,1,0,0],"min":[0,1,0,0],"type":"VEC4"},{"bufferView":17,"componentType":5123,"count":144,"max":[95],"min":[0],"type":"SCALAR"},{"bufferView":18,"componentType":5126,"count":96,"max":[-0.3125,0.1875,-0.3125],"min":[-0.5625,0,-0.5625],"type":"VEC3"},{"bufferView":19,"componentType":5126,"count":96,"max":[1,1,1],"min":[-1,-1,-1],"type":"VEC3"},{"bufferView":20,"componentType":5126,"count":96,"max":[0.187255859375,0.202880859375],"min":[0.000244140625,0.000244140625],"type":"VEC2"},{"bufferView":21,"componentType":5123,"count":96,"max":[0,0,0,0],"min":[0,0,0,0],"type":"VEC4"},{"bufferView":22,"componentType":5126,"count":96,"max":[0,1,0,0],"min":[0,1,0,0],"type":"VEC4"},{"bufferView":23,"componentType":5123,"count":144,"max":[95],"min":[0],"type":"SCALAR"},{"bufferView":24,"componentType":5126,"count":24,"max":[0.25,0.5691434144973755,0.31312429904937744],"min":[-0.25,0.09129905700683594,-0.5413719415664673],"type":"VEC3"},{"bufferView":25,"componentType":5126,"count":24,"max":[1,0.9914448857307434,0.9914448857307434],"min":[-1,-0.9914448857307434,-0.9914448857307434],"type":"VEC3"},{"bufferView":26,"componentType":5126,"count":24,"max":[0.656005859375,0.296630859375],"min":[0.000244140625,0.000244140625],"type":"VEC2"},{"bufferView":27,"componentType":5123,"count":24,"max":[0,0,0,0],"min":[0,0,0,0],"type":"VEC4"},{"bufferView":28,"componentType":5126,"count":24,"max":[0,1,0,0],"min":[0,1,0,0],"type":"VEC4"},{"bufferView":29,"componentType":5123,"count":36,"max":[23],"min":[0],"type":"SCALAR"},{"bufferView":30,"componentType":5126,"count":24,"max":[0.125,0.3391602635383606,0.9784268736839294],"min":[-0.125,0.06352760642766953,0.27233487367630005],"type":"VEC3"},{"bufferView":31,"componentType":5126,"count":24,"max":[1,0.9914448857307434,0.9914448857307434],"min":[-1,-0.9914448857307434,-0.9914448857307434],"type":"VEC3"},{"bufferView":32,"componentType":5126,"count":24,"max":[0.468505859375,0.515380859375],"min":[0.000244140625,0.297119140625],"type":"VEC2"},{"bufferView":33,"componentType":5123,"count":24,"max":[0,0,0,0],"min":[0,0,0,0],"type":"VEC4"},{"bufferView":34,"componentType":5126,"count":24,"max":[0,1,0,0],"min":[0,1,0,0],"type":"VEC4"},{"bufferView":35,"componentType":5123,"count":36,"max":[23],"min":[0],"type":"SCALAR"},{"bufferView":36,"componentType":5126,"count":48,"max":[0.25,0.625,-0.5],"min":[-0.25,0.25,-1.125],"type":"VEC3"},{"bufferView":37,"componentType":5126,"count":48,"max":[1,1,1],"min":[-1,-1,-1],"type":"VEC3"},{"bufferView":38,"componentType":5126,"count":48,"max":[0.734130859375,0.468505859375],"min":[0.297119140625,0.000244140625],"type":"VEC2"},{"bufferView":39,"componentType":5123,"count":48,"max":[0,0,0,0],"min":[0,0,0,0],"type":"VEC4"},{"bufferView":40,"componentType":5126,"count":48,"max":[0,1,0,0],"min":[0,1,0,0],"type":"VEC4"},{"bufferView":41,"componentType":5123,"count":72,"max":[47],"min":[0],"type":"SCALAR"},{"bufferView":42,"componentType":5126,"count":1,"max":[1,0,0,0,0,1,0,0,0,0,1,0,0,0,0,1],"min":[1,0,0,0,0,1,0,0,0,0,1,0,0,0,0,1],"type":"MAT4"},{"bufferView":43,"componentType":5126,"count":1,"max":[1,0,0,0,0,1,0,0,0,0,1,0,0,0,0,1],"min":[1,0,0,0,0,1,0,0,0,0,1,0,0,0,0,1],"type":"MAT4"},{"bufferView":44,"componentType":5126,"count":1,"max":[1,0,0,0,0,1,0,0,0,0,1,0,0,0,0,1],"min":[1,0,0,0,0,1,0,0,0,0,1,0,0,0,0,1],"type":"MAT4"},{"bufferView":45,"componentType":5126,"count":1,"max":[1,0,0,0,0,1,0,0,0,0,1,0,0,0,0,1],"min":[1,0,0,0,0,1,0,0,0,0,1,0,0,0,0,1],"type":"MAT4"},{"bufferView":46,"componentType":5126,"count":1,"max":[1,0,0,0,0,1,0,0,0,0,1,0,0,0,0,1],"min":[1,0,0,0,0,1,0,0,0,0,1,0,0,0,0,1],"type":"MAT4"},{"bufferView":47,"componentType":5126,"count":1,"max":[1,0,0,0,0,1,0,0,0,0,1,0,0,0,0,1],"min":[1,0,0,0,0,1,0,0,0,0,1,0,0,0,0,1],"type":"MAT4"},{"bufferView":48,"componentType":5126,"count":1,"max":[1,0,0,0,0,1,0,0,0,0,1,0,0,0,0,1],"min":[1,0,0,0,0,1,0,0,0,0,1,0,0,0,0,1],"type":"MAT4"}],"materials":[{"pbrMetallicRoughness":{"metallicFactor":0,"roughnessFactor":1,"baseColorTexture":{"index":0}},"alphaMode":"MASK","alphaCutoff":0.05,"doubleSided":true}],"textures":[{"sampler":0,"source":0}],"samplers":[{"magFilter":9728,"minFilter":9728,"wrapS":33071,"wrapT":33071}],"images":[{"mimeType":"image/png","uri":"data:image/png;base64,"}],"meshes":[{"primitives":[{"mode":4,"attributes":{"POSITION":0,"NORMAL":1,"TEXCOORD_0":2,"JOINTS_0":3,"WEIGHTS_0":4},"indices":5,"material":0}]},{"primitives":[{"mode":4,"attributes":{"POSITION":6,"NORMAL":7,"TEXCOORD_0":8,"JOINTS_0":9,"WEIGHTS_0":10},"indices":11,"material":0}]},{"primitives":[{"mode":4,"attributes":{"POSITION":12,"NORMAL":13,"TEXCOORD_0":14,"JOINTS_0":15,"WEIGHTS_0":16},"indices":17,"material":0}]},{"primitives":[{"mode":4,"attributes":{"POSITION":18,"NORMAL":19,"TEXCOORD_0":20,"JOINTS_0":21,"WEIGHTS_0":22},"indices":23,"material":0}]},{"primitives":[{"mode":4,"attributes":{"POSITION":24,"NORMAL":25,"TEXCOORD_0":26,"JOINTS_0":27,"WEIGHTS_0":28},"indices":29,"material":0}]},{"primitives":[{"mode":4,"attributes":{"POSITION":30,"NORMAL":31,"TEXCOORD_0":32,"JOINTS_0":33,"WEIGHTS_0":34},"indices":35,"material":0}]},{"primitives":[{"mode":4,"attributes":{"POSITION":36,"NORMAL":37,"TEXCOORD_0":38,"JOINTS_0":39,"WEIGHTS_0":40},"indices":41,"material":0}]}],"skins":[{"inverseBindMatrices":42,"joints":[0],"skeleton":0},{"inverseBindMatrices":43,"joints":[2],"skeleton":2},{"inverseBindMatrices":44,"joints":[4],"skeleton":4},{"inverseBindMatrices":45,"joints":[6],"skeleton":6},{"inverseBindMatrices":46,"joints":[8],"skeleton":8},{"inverseBindMatrices":47,"joints":[10],"skeleton":10},{"inverseBindMatrices":48,"joints":[12],"skeleton":12}]}